<?xml version="1.0" encoding="UTF-8" standalone="no"?>
<!DOCTYPE svg PUBLIC "-//W3C//DTD SVG 1.1//EN"
 "http://www.w3.org/Graphics/SVG/1.1/DTD/svg11.dtd">
<!-- Generated by graphviz version 2.30.1 (20150306.0020)
 -->
<!-- Title: %3 Pages: 1 -->
<svg width="395pt" height="152pt"
 viewBox="0.00 0.00 395.00 152.00" xmlns="http://www.w3.org/2000/svg" xmlns:xlink="http://www.w3.org/1999/xlink">
<g id="graph0" class="graph" transform="scale(1 1) rotate(0) translate(4 148)">
<title>%3</title>
<polygon fill="white" stroke="white" points="-4,5 -4,-148 392,-148 392,5 -4,5"/>
<!-- something
id 1 level 1 parents 0 -->
<g id="node1" class="node"><title>something
id 1 level 1 parents 0</title>
<ellipse fill="none" stroke="black" cx="92" cy="-117" rx="92.4462" ry="26.7407"/>
<text text-anchor="middle" x="92" y="-120.8" font-family="Times,serif" font-size="14.00">something</text>
<text text-anchor="middle" x="92" y="-105.8" font-family="Times,serif" font-size="14.00">id 1 level 1 parents 0</text>
</g>
<!-- adder
id 0 level 0 parents 2 -->
<g id="node2" class="node"><title>adder
id 0 level 0 parents 2</title>
<ellipse fill="none" stroke="black" cx="193" cy="-27" rx="92.4462" ry="26.7407"/>
<text text-anchor="middle" x="193" y="-30.8" font-family="Times,serif" font-size="14.00">adder</text>
<text text-anchor="middle" x="193" y="-15.8" font-family="Times,serif" font-size="14.00">id 0 level 0 parents 2</text>
</g>
<!-- something
id 1 level 1 parents 0&#45;&gt;adder
id 0 level 0 parents 2 -->
<g id="edge1" class="edge"><title>something
id 1 level 1 parents 0&#45;&gt;adder
id 0 level 0 parents 2</title>
<path fill="none" stroke="black" d="M120.403,-91.2529C131.698,-81.4113 144.831,-69.969 156.797,-59.5434"/>
<polygon fill="black" stroke="black" points="159.22,-62.0743 164.46,-52.8662 154.621,-56.7966 159.22,-62.0743"/>
</g>
<!-- something else
id 2 level 1 parents 0 -->
<g id="node3" class="node"><title>something else
id 2 level 1 parents 0</title>
<ellipse fill="none" stroke="black" cx="295" cy="-117" rx="92.4462" ry="26.7407"/>
<text text-anchor="middle" x="295" y="-120.8" font-family="Times,serif" font-size="14.00">something else</text>
<text text-anchor="middle" x="295" y="-105.8" font-family="Times,serif" font-size="14.00">id 2 level 1 parents 0</text>
</g>
<!-- something else
id 2 level 1 parents 0&#45;&gt;adder
id 0 level 0 parents 2 -->
<g id="edge2" class="edge"><title>something else
id 2 level 1 parents 0&#45;&gt;adder
id 0 level 0 parents 2</title>
<path fill="none" stroke="black" d="M266.316,-91.2529C254.812,-81.3279 241.421,-69.7749 229.255,-59.2786"/>
<polygon fill="black" stroke="black" points="231.327,-56.4436 221.469,-52.5613 226.754,-61.7438 231.327,-56.4436"/>
</g>
</g>
</svg>
